<?xml version="1.0" encoding="utf-8"?>
<svg xmlns="http://www.w3.org/2000/svg" width="210mm" height="297mm" viewBox="0 0 210 297">
  <defs>
    <g id="robot-overlay-qr" shape-rendering="crispEdges">
      <path fill="#ffffff" d="M0 0h33v33H0z"/>
      <path stroke="#000000" stroke-width="1" d="M4 4.5h7m1 0h1m2 0h1m2 0h1m1 0h1m1 0h7M4 5.5h1m5 0h1m1 0h4m1 0h2m1 0h1m1 0h1m5 0h1M4 6.5h1m1 0h3m1 0h1m1 0h1m1 0h3m1 0h2m2 0h1m1 0h3m1 0h1M4 7.5h1m1 0h3m1 0h1m2 0h2m2 0h4m1 0h1m1 0h3m1 0h1M4 8.5h1m1 0h3m1 0h1m2 0h1m2 0h5m1 0h1m1 0h3m1 0h1M4 9.5h1m5 0h1m1 0h1m5 0h1m3 0h1m5 0h1M4 10.5h7m1 0h1m1 0h1m1 0h1m1 0h1m1 0h1m1 0h7M12 11.5h3m2 0h1m1 0h1M6 12.5h3m1 0h1m1 0h3m1 0h4m1 0h3m2 0h3M5 13.5h5m1 0h1m3 0h1m3 0h3m1 0h1m1 0h1M4 14.5h3m1 0h1m1 0h7m3 0h1m1 0h2m1 0h4M6 15.5h1m2 0h1m3 0h1m1 0h1m1 0h1m5 0h1m3 0h1M4 16.5h7m1 0h1m2 0h3m3 0h2m1 0h4M4 17.5h1m1 0h1m1 0h2m2 0h1m4 0h1m1 0h2m2 0h1m2 0h1M4 18.5h1m1 0h1m1 0h4m2 0h3m4 0h1m2 0h1m1 0h3M4 19.5h1m2 0h2m3 0h2m4 0h1m1 0h1m1 0h2M4 20.5h1m1 0h1m1 0h1m1 0h1m1 0h2m1 0h2m1 0h1m1 0h5m1 0h1m1 0h1M12 21.5h1m1 0h1m2 0h1m1 0h2m3 0h1m2 0h1M4 22.5h7m3 0h3m2 0h2m1 0h1m1 0h2m1 0h2M4 23.5h1m5 0h1m2 0h4m2 0h2m3 0h2m1 0h2M4 24.5h1m1 0h3m1 0h1m1 0h3m2 0h11M4 25.5h1m1 0h3m1 0h1m1 0h2m1 0h1m2 0h1m2 0h4m1 0h1m1 0h1M4 26.5h1m1 0h3m1 0h1m1 0h1m4 0h1m1 0h2m2 0h1m4 0h1M4 27.5h1m5 0h1m2 0h1m1 0h3m2 0h1m1 0h3m3 0h1M4 28.5h7m2 0h1m1 0h3m3 0h8"/>
    </g>
  </defs>
  <rect width="210" height="297" fill="#ffffff"/>
  <text x="105" y="14" text-anchor="middle" font-family="Arial, Helvetica, sans-serif" font-size="7" fill="#000000">robot-overlay QR markers</text>
  <text x="105" y="22" text-anchor="middle" font-family="Arial, Helvetica, sans-serif" font-size="4.5" fill="#444444">A4 sheet. Print at 100% / Actual size. Do not fit to page.</text>

  <g transform="translate(20 35)">
    <use href="#robot-overlay-qr" transform="scale(1.5151515152)"/>
    <text x="25" y="58" text-anchor="middle" font-family="Arial, Helvetica, sans-serif" font-size="5" fill="#000000">50 mm</text>
  </g>

  <g transform="translate(90 35)">
    <use href="#robot-overlay-qr" transform="scale(2.1212121212)"/>
    <text x="35" y="78" text-anchor="middle" font-family="Arial, Helvetica, sans-serif" font-size="5" fill="#000000">70 mm recommended</text>
  </g>

  <g transform="translate(55 125)">
    <use href="#robot-overlay-qr" transform="scale(3.0303030303)"/>
    <text x="50" y="108" text-anchor="middle" font-family="Arial, Helvetica, sans-serif" font-size="5" fill="#000000">100 mm</text>
  </g>

  <text x="105" y="252" text-anchor="middle" font-family="Arial, Helvetica, sans-serif" font-size="6" fill="#000000">Payload: robot-overlay</text>
  <text x="105" y="262" text-anchor="middle" font-family="Arial, Helvetica, sans-serif" font-size="4.5" fill="#444444">Use the largest marker that fits flat on the robot without bending.</text>
</svg>
